<?xml version="1.0" standalone="no"?>
<!DOCTYPE svg PUBLIC "-//W3C//DTD SVG 20010904//EN"
 "http://www.w3.org/TR/2001/REC-SVG-20010904/DTD/svg10.dtd">
<svg version="1.0" xmlns="http://www.w3.org/2000/svg"
 width="500.000000pt" height="500.000000pt" viewBox="0 0 500.000000 500.000000"
 preserveAspectRatio="xMidYMid meet">
<metadata>
Created by potrace 1.14, written by Peter Selinger 2001-2017
</metadata>
<g transform="translate(0.000000,500.000000) scale(0.100000,-0.100000)"
fill="#000000" stroke="none">
<path d="M2375 4524 c-712 -43 -1365 -477 -1690 -1125 -93 -183 -155 -382
-191 -604 -24 -150 -24 -458 0 -605 72 -440 261 -813 567 -1119 311 -311 689
-503 1139 -577 142 -24 463 -24 609 0 441 71 816 261 1126 571 310 310 502
690 571 1130 22 144 23 450 0 590 -72 459 -260 837 -573 1149 -309 310 -700
507 -1129 570 -105 16 -329 26 -429 20z m420 -108 c848 -130 1501 -797 1626
-1661 18 -126 16 -424 -5 -555 -98 -620 -477 -1142 -1036 -1429 -171 -88 -363
-151 -575 -187 -139 -24 -461 -24 -600 0 -425 73 -785 256 -1074 546 -522 522
-703 1281 -470 1975 100 297 248 536 473 761 335 335 758 530 1231 568 86 7
336 -4 430 -18z"/>
</g>
</svg>
