<?xml version="1.0" standalone="no"?>
<!DOCTYPE svg PUBLIC "-//W3C//DTD SVG 20010904//EN"
 "http://www.w3.org/TR/2001/REC-SVG-20010904/DTD/svg10.dtd">
<svg version="1.0" xmlns="http://www.w3.org/2000/svg"
 width="1024.000000pt" height="1024.000000pt" viewBox="0 0 1024.000000 1024.000000"
 preserveAspectRatio="xMidYMid meet">
<metadata>
Created by potrace 1.14, written by Peter Selinger 2001-2017
</metadata>
<g transform="translate(0.000000,1024.000000) scale(0.100000,-0.100000)"
fill="#000000" stroke="none">
<path d="M4885 10047 c-71 -11 -132 -13 -238 -5 -44 3 -80 2 -83 -4 -4 -5 -10
-5 -18 1 -7 6 -26 7 -48 2 -21 -5 -39 -7 -41 -4 -3 2 -38 -6 -78 -17 -95 -27
-96 -27 -149 -41 -25 -6 -51 -13 -58 -15 -7 -2 -13 -3 -15 -3 -7 1 -158 -67
-205 -93 -50 -27 -68 -31 -150 -34 -79 -3 -102 -8 -145 -31 -90 -48 -128 -97
-140 -178 -2 -11 -34 -52 -73 -90 -182 -185 -328 -375 -412 -540 -35 -70 -102
-214 -102 -222 0 -3 -6 -19 -14 -36 -29 -66 -99 -244 -116 -297 -28 -84 -64
-204 -65 -215 0 -5 -4 -15 -8 -22 -4 -6 -10 -31 -13 -55 -4 -24 -10 -47 -14
-53 -10 -13 -19 -71 -45 -287 -12 -102 -13 -237 -2 -242 9 -3 8 -5 0 -5 -7 -1
-13 -6 -13 -12 0 -5 5 -7 12 -3 7 4 8 3 4 -5 -4 -6 -2 -19 6 -28 11 -14 11
-16 -1 -9 -10 7 -11 3 -6 -15 10 -31 13 -54 20 -164 3 -49 8 -99 10 -110 2
-11 4 -33 4 -48 1 -16 5 -26 9 -23 5 3 9 -1 9 -9 0 -8 -4 -12 -8 -9 -5 2 -3
-10 3 -28 7 -20 12 -116 12 -258 0 -344 -17 -500 -78 -725 -19 -68 -102 -320
-116 -350 -5 -11 -29 -70 -54 -131 -25 -60 -61 -146 -81 -190 -20 -43 -36 -79
-35 -79 1 0 -13 -31 -30 -70 -17 -38 -31 -70 -30 -70 0 0 -67 -135 -150 -300
-146 -291 -198 -391 -259 -498 -16 -29 -39 -70 -51 -92 -62 -111 -117 -205
-210 -360 -57 -93 -108 -179 -114 -190 -6 -11 -23 -38 -38 -60 -14 -22 -82
-128 -150 -235 -125 -194 -268 -415 -379 -584 -33 -48 -59 -92 -59 -97 0 -5
-4 -9 -10 -9 -5 0 -10 -4 -10 -9 0 -5 -22 -44 -50 -85 -27 -42 -50 -80 -50
-85 0 -5 -4 -11 -8 -13 -4 -1 -41 -57 -82 -123 -40 -66 -87 -143 -104 -170
-79 -128 -159 -273 -228 -415 -79 -164 -82 -171 -118 -268 -30 -85 -64 -210
-74 -272 -19 -131 -27 -229 -28 -330 0 -107 1 -111 35 -235 14 -49 28 -103 33
-120 10 -42 11 -44 14 -50 1 -3 3 -8 5 -12 1 -5 4 -15 7 -23 3 -8 15 -44 26
-80 57 -178 128 -355 183 -455 21 -38 34 -51 54 -53 l27 -4 -21 30 c-11 17
-21 36 -21 44 0 8 -4 18 -9 24 -22 22 -68 214 -87 359 -3 28 -8 59 -11 70 -3
11 -6 115 -8 230 -5 342 33 537 177 905 102 261 196 440 338 638 25 35 65 92
90 127 25 36 66 88 90 117 25 28 54 63 65 76 11 13 31 37 45 52 14 15 41 47
60 71 19 23 49 59 66 78 17 20 47 58 68 84 20 27 36 46 36 43 0 -2 -24 -53
-54 -113 -51 -101 -98 -202 -151 -318 -64 -140 -75 -166 -75 -170 0 -2 -13
-32 -29 -67 -16 -35 -43 -99 -61 -143 -18 -44 -38 -93 -45 -110 -8 -16 -20
-48 -28 -70 -22 -63 -77 -208 -84 -225 -3 -8 -7 -17 -8 -20 -2 -11 -67 -206
-72 -220 -4 -8 -7 -17 -8 -20 0 -3 -9 -32 -20 -65 -10 -33 -19 -64 -20 -70 -2
-5 -13 -44 -25 -85 -22 -73 -67 -249 -76 -300 -3 -14 -10 -45 -15 -70 -18 -79
-23 -104 -34 -172 -3 -18 -7 -44 -10 -58 -13 -73 -23 -160 -31 -285 -7 -95 -8
-141 -5 -297 l1 -68 395 0 395 0 -4 23 c-8 38 -28 169 -32 207 -7 75 -15 199
-18 279 -4 84 6 93 18 16 13 -84 19 -114 42 -200 3 -11 7 -30 10 -42 2 -12 8
-33 13 -45 5 -13 9 -27 10 -33 0 -5 15 -54 33 -107 l32 -98 3913 0 3913 0 1
48 c6 247 -22 507 -82 745 -19 76 -23 104 -15 96 4 -3 80 -255 91 -299 43
-178 65 -271 70 -295 7 -45 14 -75 19 -93 3 -9 8 -41 11 -69 4 -29 10 -67 15
-84 5 -18 7 -36 4 -40 -3 -5 123 -9 279 -9 l284 0 -14 66 c-7 36 -22 91 -33
122 -11 31 -20 59 -20 62 0 11 67 -108 100 -177 l35 -73 123 0 122 0 0 343 c0
321 -1 345 -18 360 -10 10 -22 14 -26 10 -4 -5 -6 -1 -4 7 1 8 -2 14 -8 13 -6
-1 -22 10 -35 25 l-24 27 28 -24 c42 -38 32 -10 -13 34 -22 21 -40 35 -40 30
0 -4 -9 0 -20 10 -11 10 -17 21 -14 26 2 5 -8 21 -23 38 -46 48 -106 119 -192
231 -67 85 -62 79 -95 128 -16 23 -33 42 -38 42 -5 0 -6 5 -3 10 3 6 -1 13 -9
16 -9 3 -13 10 -10 15 3 5 1 9 -4 9 -11 0 -124 168 -163 240 -13 25 -26 47
-29 50 -3 3 -33 61 -67 130 -132 267 -161 342 -243 629 -23 79 -50 162 -60
185 -10 23 -33 84 -50 136 -31 94 -109 290 -134 340 -8 14 -39 79 -71 145 -55
114 -183 337 -229 400 -13 17 -25 38 -29 48 -3 9 -11 17 -17 17 -5 0 -10 5
-10 11 0 6 -13 29 -29 52 -16 23 -52 78 -81 122 -50 77 -51 79 -14 39 46 -48
149 -163 262 -290 44 -50 99 -108 123 -130 23 -21 65 -61 93 -87 28 -27 82
-76 120 -110 39 -34 79 -71 91 -82 27 -26 143 -123 185 -155 18 -14 52 -41 75
-60 89 -74 127 -103 202 -158 43 -31 80 -60 81 -64 2 -4 8 -8 13 -8 12 0 50
-28 259 -189 58 -45 117 -92 133 -106 15 -14 31 -25 36 -25 4 0 16 -9 27 -21
10 -12 31 -30 47 -41 l27 -19 0 179 0 180 -245 154 c-135 84 -253 158 -262
163 -10 6 -51 31 -91 58 -40 26 -75 47 -77 47 -7 0 -139 81 -145 89 -3 4 -34
28 -70 54 -152 112 -180 136 -320 277 -163 165 -280 300 -443 510 -104 135
-257 355 -257 371 0 5 -4 9 -10 9 -5 0 -10 5 -10 11 0 6 -14 30 -30 54 -86
126 -329 580 -424 795 -16 36 -37 83 -48 105 -11 22 -21 47 -23 55 -2 8 -23
60 -46 115 -22 55 -45 111 -49 125 -5 14 -23 63 -40 110 -34 91 -48 137 -56
185 -3 17 -10 57 -16 90 -6 33 -11 71 -13 85 -1 14 -5 45 -8 70 -29 218 -38
306 -34 330 3 15 1 32 -4 37 -10 10 -11 67 -6 668 1 191 -2 266 -17 470 -2 22
-7 65 -11 95 -4 30 -8 62 -9 70 -8 60 -20 110 -26 110 -5 0 -6 8 -3 19 3 10 0
22 -6 25 -6 4 -11 15 -11 25 0 18 -71 212 -103 281 -27 59 -48 114 -53 134 -2
11 -8 24 -14 30 -5 5 -10 18 -10 29 0 11 -4 15 -12 11 -6 -4 -8 -3 -5 3 11 17
-78 213 -187 417 -78 146 -400 537 -428 520 -5 -3 -7 -2 -6 3 2 5 -15 25 -37
44 -22 18 -44 39 -50 45 -5 5 -32 28 -60 49 -27 22 -52 42 -55 45 -33 35 -199
129 -217 123 -7 -3 -36 7 -65 21 -47 22 -109 43 -233 78 -22 6 -46 16 -54 22
-11 8 -13 8 -7 -2 6 -11 4 -11 -10 -3 -29 15 -229 68 -345 92 -82 16 -149 21
-319 23 -118 2 -242 -2 -275 -7z m-65 -447 c-8 -5 -19 -10 -25 -10 -5 0 -3 5
5 10 8 5 20 10 25 10 6 0 3 -5 -5 -10z m-133 -16 c-3 -3 -12 -4 -19 -1 -8 3
-5 6 6 6 11 1 17 -2 13 -5z m3453 -5419 c87 -158 93 -167 174 -295 33 -52 64
-96 68 -98 5 -2 8 -8 8 -14 0 -11 59 -98 95 -141 16 -18 100 -148 115 -176 7
-14 21 -34 31 -45 11 -11 19 -26 19 -33 0 -7 5 -13 10 -13 6 0 10 -4 10 -9 0
-6 13 -30 30 -54 56 -83 257 -453 265 -487 1 -3 7 -18 14 -35 42 -95 69 -168
97 -254 13 -41 24 -79 24 -86 0 -9 53 -203 87 -320 5 -18 4 -18 -15 3 -52 58
-217 295 -253 362 -22 41 -56 104 -76 140 -152 278 -386 760 -502 1035 -60
144 -230 554 -238 575 -11 27 4 6 37 -55z m1004 -3251 c3 -8 2 -12 -4 -9 -6 3
-10 10 -10 16 0 14 7 11 14 -7z m981 -114 c3 -5 1 -10 -4 -10 -6 0 -11 5 -11
10 0 6 2 10 4 10 3 0 8 -4 11 -10z"/>
<path d="M10070 856 c0 -2 7 -9 15 -16 9 -7 15 -8 15 -2 0 5 -7 12 -15 16 -8
3 -15 4 -15 2z"/>
</g>
</svg>
